<?xml version="1.0" encoding="utf-8"?>
<svg xmlns="http://www.w3.org/2000/svg" xmlns:svg="http://www.w3.org/2000/svg" version="1.1" viewBox="0 0 1400 340">
	<title>The titlepage for the Standard Ebooks edition of The Gods of Mars, by Edgar Rice Burroughs</title>
	<g aria-label="THE GODS OF MARS">
		<path d="m 176.04093,68.245613 h 18.33918 V 130 h 17.59064 V 68.245613 h 18.33918 V 52.807016 h -54.269 z"/>
		<path d="m 259.23537,99.029239 h 24.88889 V 130 H 301.7149 V 52.807016 H 284.12426 V 83.590642 H 259.23537 V 52.807016 H 241.64473 V 130 h 17.59064 z"/>
		<path d="M 362.08041,52.807016 H 317.91666 V 130 h 44.16375 v -15.4386 h -26.5731 V 99.029239 H 360.9576 V 83.590642 H 335.50731 V 68.245613 h 26.5731 z"/>
		<path d="m 477.57895,86.771929 h -35.64913 v 13.567251 h 17.77778 c 0,9.45029 -8.32748,14.87719 -16.74854,14.87719 -10.8538,0 -19.64912,-10.66666 -19.64912,-23.766078 0,-13.380117 8.79532,-24.140352 19.64912,-24.140352 6.83041,0 12.72515,2.713451 17.21638,9.918129 L 471.68421,64.59649 c -6.73684,-8.140351 -16.18713,-13.192983 -29.75439,-13.192983 -21.7076,0 -37.61403,17.871346 -37.61403,40.046785 0,22.081868 16.8421,39.953218 37.61403,39.953218 15.1579,0 31.4386,-8.32749 35.64913,-27.88304 z"/>
		<path d="m 486.80116,91.356724 c 0,22.549706 16.09356,40.046786 38.92397,40.046786 22.17544,0 38.83041,-17.49708 38.83041,-40.046786 0,-22.549708 -17.40351,-39.953217 -38.83041,-39.953217 -21.23976,0 -38.92397,17.403509 -38.92397,39.953217 z m 18.99415,0 c 0,-11.508772 6.36257,-23.017544 19.92982,-23.017544 13.66082,0 19.83626,11.508772 19.83626,23.017544 0,11.508776 -5.80117,23.017546 -19.83626,23.017546 -14.40935,0 -19.92982,-11.50877 -19.92982,-23.017546 z"/>
		<path d="M 577.31725,52.807016 V 130 h 22.36258 c 21.23976,0 38.92397,-16.09357 38.92397,-38.643276 0,-22.45614 -17.77778,-38.549708 -38.92397,-38.549708 z M 594.9079,114.2807 V 68.526315 h 2.71345 c 13.09941,0 21.9883,10.011696 21.9883,22.923977 -0.0936,12.912278 -8.98246,22.830408 -21.9883,22.830408 z"/>
		<path d="m 678.01316,51.403507 c -12.44444,0 -25.16959,9.169591 -25.16959,23.578948 0,8.046784 5.4269,15.251462 14.69006,19.836258 9.16959,4.584795 17.40351,7.111107 17.40351,12.725147 0,7.20468 -7.29825,7.57895 -11.1345,7.57895 -8.60819,0 -18.90059,-8.70176 -18.90059,-8.70176 l -8.79532,14.78363 c 0,0 10.94737,10.19883 29.00585,10.19883 15.06432,0 29.09941,-6.45614 29.09941,-24.88889 0,-10.105264 -9.45029,-17.40351 -18.05848,-21.052632 -8.79532,-3.742691 -16.09356,-6.83041 -16.09356,-11.134504 0,-4.210526 3.18128,-6.923976 9.16959,-6.923976 7.95321,0 15.62573,5.333333 15.62573,5.333333 l 7.11111,-14.035088 c 0,0 -9.91813,-7.298246 -23.95322,-7.298246 z"/>
		<path d="m 744.55705,91.356724 c 0,22.549706 16.09356,40.046786 38.92397,40.046786 22.17544,0 38.83041,-17.49708 38.83041,-40.046786 0,-22.549708 -17.40351,-39.953217 -38.83041,-39.953217 -21.23976,0 -38.92397,17.403509 -38.92397,39.953217 z m 18.99415,0 c 0,-11.508772 6.36257,-23.017544 19.92982,-23.017544 13.66082,0 19.83626,11.508772 19.83626,23.017544 0,11.508776 -5.80117,23.017546 -19.83626,23.017546 -14.40935,0 -19.92982,-11.50877 -19.92982,-23.017546 z"/>
		<path d="M 879.70469,52.807016 H 835.07311 V 130 h 17.59064 V 99.029239 h 24.98246 V 83.590642 H 852.66375 V 68.245613 h 27.04094 z"/>
		<path d="m 987.46783,130 h 17.59067 L 998.13449,52.807016 H 979.42104 L 962.29823,97.345029 945.17543,52.807016 H 926.46198 L 919.538,130 h 17.59064 l 3.64913,-45.754387 h 0.46783 l 15.81287,45.286547 H 967.538 l 15.81287,-45.286547 h 0.46783 z"/>
		<path d="m 1056.31,52.807016 h -16.2807 L 1008.8714,130 h 18.9005 l 5.7076,-15.4386 h 29.3802 L 1068.5673,130 h 18.9006 z m 0.5614,46.31579 h -17.4035 l 8.6081,-22.45614 h 0.1872 z"/>
		<path d="M 1095.3874,52.807016 V 130 h 17.5907 V 99.497075 L 1136.557,130 h 22.3626 l -26.5731,-31.906433 c 9.4503,-2.994152 15.8129,-10.760234 15.8129,-22.362574 0,-15.157895 -10.8538,-22.923977 -25.1696,-22.923977 z m 17.5907,34.245615 V 66.842104 h 2.0585 c 6.6432,0 14.5965,0.467836 14.5965,10.105263 0,9.637428 -7.9533,10.105264 -14.5965,10.105264 z"/>
		<path d="m 1195.9006,51.403507 c -12.4444,0 -25.1696,9.169591 -25.1696,23.578948 0,8.046784 5.4269,15.251462 14.6901,19.836258 9.1696,4.584795 17.4035,7.111107 17.4035,12.725147 0,7.20468 -7.2983,7.57895 -11.1345,7.57895 -8.6082,0 -18.9006,-8.70176 -18.9006,-8.70176 l -8.7953,14.78363 c 0,0 10.9473,10.19883 29.0058,10.19883 15.0644,0 29.0994,-6.45614 29.0994,-24.88889 0,-10.105264 -9.4502,-17.40351 -18.0584,-21.052632 -8.7954,-3.742691 -16.0936,-6.83041 -16.0936,-11.134504 0,-4.210526 3.1813,-6.923976 9.1696,-6.923976 7.9532,0 15.6257,5.333333 15.6257,5.333333 l 7.1111,-14.035088 c 0,0 -9.9181,-7.298246 -23.9532,-7.298246 z"/>
	</g>
	<g aria-label="EDGAR RICE BURROUGHS">
		<path d="m 225.67489,232.10526 h -33.1228 V 290 h 33.1228 v -11.57895 h -19.92982 v -11.64912 h 19.08772 v -11.57895 h -19.08772 v -11.50877 h 19.92982 z"/>
		<path d="M 238.25932,232.10526 V 290 h 16.77193 c 15.92983,0 29.19299,-12.07018 29.19299,-28.98246 0,-16.8421 -13.33334,-28.91228 -29.19299,-28.91228 z m 13.19299,46.10527 v -34.31579 h 2.03508 c 9.82457,0 16.49123,7.50877 16.49123,17.19298 -0.0702,9.68421 -6.73684,17.12281 -16.49123,17.12281 z"/>
		<path d="m 347.41941,257.57895 h -26.73684 v 10.17544 h 13.33333 c 0,7.08772 -6.24561,11.15789 -12.5614,11.15789 -8.14035,0 -14.73684,-8 -14.73684,-17.82456 0,-10.03509 6.59649,-18.10526 14.73684,-18.10526 5.12281,0 9.54386,2.03508 12.91228,7.43859 l 8.63158,-9.47368 c -5.05263,-6.10526 -12.14035,-9.89474 -22.31579,-9.89474 -16.2807,0 -28.21052,13.40351 -28.21052,30.03509 0,16.5614 12.63157,29.96491 28.21052,29.96491 11.36842,0 23.57895,-6.24561 26.73684,-20.91228 z"/>
		<path d="M 387.58607,232.10526 H 375.37555 L 352.00713,290 h 14.17544 l 4.2807,-11.57895 h 22.03508 L 396.77906,290 h 14.17543 z m 0.42106,34.73685 H 374.9545 L 381.41064,250 h 0.14035 z"/>
		<path d="M 418.14419,232.10526 V 290 h 13.19298 V 267.12281 L 449.02138,290 h 16.77193 l -19.92982,-23.92982 c 7.08772,-2.24562 11.85965,-8.07018 11.85965,-16.77193 0,-11.36842 -8.14035,-17.19299 -18.8772,-17.19299 z m 13.19298,25.68421 v -15.15789 h 1.54386 c 4.98246,0 10.94737,0.35088 10.94737,7.57895 0,7.22807 -5.96491,7.57894 -10.94737,7.57894 z"/>
		<path d="M 497.63433,232.10526 V 290 h 13.19298 V 267.12281 L 528.51153,290 h 16.77192 l -19.92982,-23.92982 c 7.08772,-2.24562 11.85965,-8.07018 11.85965,-16.77193 0,-11.36842 -8.14035,-17.19299 -18.87719,-17.19299 z m 13.19298,25.68421 v -15.15789 h 1.54386 c 4.98246,0 10.94737,0.35088 10.94737,7.57895 0,7.22807 -5.96491,7.57894 -10.94737,7.57894 z"/>
		<path d="M 566.12883,232.10526 H 552.93585 V 290 h 13.19298 z"/>
		<path d="m 608.2056,278.07018 c -13.26316,0 -19.08772,-9.26316 -19.08772,-17.05264 0,-7.71929 5.82456,-16.98245 19.08772,-16.98245 6.73684,0 11.36842,3.57895 11.36842,3.57895 l 5.61404,-11.22807 c 0,0 -6.45614,-5.33334 -19.01755,-5.33334 -16.42105,0 -31.36842,13.47369 -31.36842,30.10527 0,16.5614 15.01755,29.89473 31.36842,29.89473 12.56141,0 19.01755,-5.33333 19.01755,-5.33333 l -5.61404,-11.22807 c 0,0 -4.63158,3.57895 -11.36842,3.57895 z"/>
		<path d="M 668.42709,232.10526 H 635.30428 V 290 h 33.12281 v -11.57895 h -19.92982 v -11.64912 h 19.08772 v -11.57895 h -19.08772 v -11.50877 h 19.92982 z"/>
		<path d="M 705.2001,232.10526 V 290 h 21.96491 c 12,0 18.94737,-6.59649 18.94737,-16.14035 0,-9.33333 -5.12281,-13.33333 -12.35088,-14.59649 4.91228,-2.52632 7.22807,-7.08772 7.22807,-12.42105 0,-11.01755 -7.85965,-14.73685 -17.82456,-14.73685 z m 13.19298,22.66667 V 242.2807 h 1.05263 c 5.75439,0 8.77193,1.75439 8.77193,5.89474 0,4.8421 -3.08772,6.59649 -8.77193,6.59649 z m 0,25.05263 v -13.68421 h 4.14035 c 6.24562,0 9.68421,1.89474 9.68421,7.22807 0,4.5614 -3.43859,6.45614 -9.68421,6.45614 z"/>
		<path d="m 801.4293,232.10526 h -13.19298 v 33.47369 c 0,9.68421 -2.94737,12.49123 -9.40351,12.49123 -6.45614,0 -9.40351,-2.80702 -9.40351,-12.49123 v -33.47369 h -13.19298 v 37.33334 c 0,14.31579 7.85965,21.61403 22.59649,21.61403 14.73684,0 22.59649,-7.29824 22.59649,-21.61403 z"/>
		<path d="M 814.15841,232.10526 V 290 h 13.19298 V 267.12281 L 845.0356,290 h 16.77193 l -19.92982,-23.92982 c 7.08772,-2.24562 11.85965,-8.07018 11.85965,-16.77193 0,-11.36842 -8.14035,-17.19299 -18.87719,-17.19299 z m 13.19298,25.68421 v -15.15789 h 1.54386 c 4.98246,0 10.94737,0.35088 10.94737,7.57895 0,7.22807 -5.96491,7.57894 -10.94737,7.57894 z"/>
		<path d="M 869.45999,232.10526 V 290 h 13.19298 V 267.12281 L 900.33718,290 h 16.77193 l -19.92983,-23.92982 c 7.08772,-2.24562 11.85965,-8.07018 11.85965,-16.77193 0,-11.36842 -8.14035,-17.19299 -18.87719,-17.19299 z m 13.19298,25.68421 v -15.15789 h 1.54386 c 4.98245,0 10.94737,0.35088 10.94737,7.57895 0,7.22807 -5.96492,7.57894 -10.94737,7.57894 z"/>
		<path d="m 922.16501,261.01754 c 0,16.91228 12.07017,30.03509 29.19298,30.03509 16.63158,0 29.12281,-13.12281 29.12281,-30.03509 0,-16.91228 -13.05263,-29.96491 -29.12281,-29.96491 -15.92982,0 -29.19298,13.05263 -29.19298,29.96491 z m 14.24561,0 c 0,-8.63157 4.77193,-17.26315 14.94737,-17.26315 10.24561,0 14.87719,8.63158 14.87719,17.26315 0,8.63158 -4.35087,17.26316 -14.87719,17.26316 -10.80702,0 -14.94737,-8.63158 -14.94737,-17.26316 z"/>
		<path d="m 1035.7933,232.10526 h -13.193 v 33.47369 c 0,9.68421 -2.9473,12.49123 -9.4035,12.49123 -6.4561,0 -9.4035,-2.80702 -9.4035,-12.49123 v -33.47369 h -13.19297 v 37.33334 c 0,14.31579 7.85965,21.61403 22.59647,21.61403 14.7369,0 22.5965,-7.29824 22.5965,-21.61403 z"/>
		<path d="m 1100.8734,257.57895 h -26.7369 v 10.17544 h 13.3334 c 0,7.08772 -6.2457,11.15789 -12.5614,11.15789 -8.1404,0 -14.7369,-8 -14.7369,-17.82456 0,-10.03509 6.5965,-18.10526 14.7369,-18.10526 5.1228,0 9.5438,2.03508 12.9122,7.43859 l 8.6316,-9.47368 c -5.0526,-6.10526 -12.1403,-9.89474 -22.3158,-9.89474 -16.2807,0 -28.2105,13.40351 -28.2105,30.03509 0,16.5614 12.6316,29.96491 28.2105,29.96491 11.3684,0 23.579,-6.24561 26.7369,-20.91228 z"/>
		<path d="m 1124.8295,266.77193 h 18.6666 V 290 h 13.193 v -57.89474 h -13.193 v 23.08772 h -18.6666 v -23.08772 h -13.193 V 290 h 13.193 z"/>
		<path d="m 1190.0531,231.05263 c -9.3333,0 -18.8771,6.8772 -18.8771,17.68421 0,6.03509 4.0701,11.4386 11.0175,14.8772 6.8772,3.43859 13.0526,5.33333 13.0526,9.54385 0,5.40351 -5.4737,5.68422 -8.3508,5.68422 -6.4562,0 -14.1755,-6.52632 -14.1755,-6.52632 l -6.5965,11.08772 c 0,0 8.2105,7.64912 21.7544,7.64912 11.2983,0 21.8246,-4.8421 21.8246,-18.66666 0,-7.57895 -7.0878,-13.05264 -13.5439,-15.78948 -6.5965,-2.80702 -12.0702,-5.12281 -12.0702,-8.35088 0,-3.15789 2.386,-5.19298 6.8772,-5.19298 5.9649,0 11.7193,4 11.7193,4 l 5.3334,-10.52631 c 0,0 -7.4386,-5.47369 -17.965,-5.47369 z"/>
	</g>
</svg>
